<svg xmlns="http://www.w3.org/2000/svg" xml:space="preserve" id="Layer_1" width="150" height="150" fill="#F1CDB3" stroke="#F1CDB3" version="1.1" viewBox="0 0 120 120"><g id="SVGRepo_iconCarrier"><style>.st1,.st2,.st3{opacity:5.000000e-02;enable-background:new}.st2,.st3{opacity:.1}.st3{opacity:.15}.st4{fill:#fff}</style><g id="Bag_2"><path d="M77.1 25H35.2c-2.3 0-4.3 1.7-4.5 4.1l-5.8 50.7c-.3 2.7 1.8 5.1 4.5 5.1H82c2.7 0 4.8-2.3 4.6-5l-4.9-50.8c-.3-2.3-2.2-4.1-4.6-4.1z" style="fill:#ea907a"/><path d="M83.7 84H31.1c-2.7 0-4.8-2.4-4.5-5.1l5.8-50.7c.1-1.2.6-2.2 1.4-2.9-1.7.5-3 2-3.2 3.9l-5.8 50.7c-.3 2.7 1.8 5.1 4.5 5.1H82c1.2 0 2.2-.5 3-1.2-.4.1-.8.2-1.3.2z" class="st1"/><path d="M56.4 64.5c-3.3 0-6.1-.5-8.6-1.6-2.9-1.2-5.4-3.3-6.8-5.7-1.8-3.1-2.3-6.9-1.5-11.6.3-1.6.6-3.2.9-4.7.5-2.1.9-4.2 1.2-6.3.1-.5.6-1 1.1-.9s.9.6.9 1.1c-.2 2.2-.7 4.4-1.2 6.5-.3 1.5-.7 3-.9 4.6-.7 4.2-.3 7.6 1.3 10.2 1.2 2.1 3.3 3.8 5.8 4.9 2.3 1 4.8 1.4 7.8 1.4 2.2 0 4.9-.2 7.2-1.6 3-1.7 4.5-5 5.3-7.4 1.9-5.9 1.2-12.7-2-18.1-.3-.5-.1-1.1.4-1.4.5-.3 1.1-.1 1.4.4 3.5 5.9 4.3 13.2 2.2 19.7-.9 2.8-2.6 6.5-6.1 8.6-2.9 1.7-6 1.9-8.4 1.9z" class="st2"/><circle cx="43.4" cy="33.8" r="2.3" class="st3"/><circle cx="68.1" cy="33.8" r="2.3" class="st3"/><path d="M57.2 63.5c-3.3 0-6.1-.5-8.6-1.6-2.9-1.2-5.4-3.3-6.8-5.7-1.8-3.1-2.3-6.9-1.5-11.6.3-1.6.6-3.2.9-4.7.5-2.1.9-4.2 1.2-6.3.1-.5.6-1 1.1-.9s.9.6.9 1.1c-.2 2.2-.7 4.4-1.2 6.5-.3 1.5-.7 3-.9 4.6-.7 4.2-.3 7.6 1.3 10.2 1.2 2.1 3.3 3.8 5.8 4.9 2.3 1 4.8 1.4 7.8 1.4 2.2 0 4.9-.2 7.2-1.6 3-1.7 4.5-5 5.3-7.4 1.9-5.9 1.2-12.7-2-18.1-.3-.5-.1-1.1.4-1.4.5-.3 1.1-.1 1.4.4 3.5 5.9 4.3 13.2 2.2 19.7-.9 2.8-2.6 6.5-6.1 8.6-2.9 1.7-6 1.9-8.4 1.9z" class="st4"/></g><g id="Bag_3"><path d="m43.1 54.9-27.3.4c-1.5 0-2.7 1.1-2.9 2.6L9.3 91.8c-.2 1.7 1.1 3.2 2.9 3.2l34.2-3c1.7 0 3-1.5 2.9-3.2L46 57.5c-.2-1.5-1.4-2.6-2.9-2.6z" style="fill:#fadcc7"/><path d="m47.4 91.2-34.2 3c-1.8 0-3.1-1.5-2.9-3.2l3.6-33.9c.1-.6.3-1.1.7-1.5-.9.4-1.5 1.3-1.7 2.3L9.3 91.8c-.2 1.7 1.1 3.2 2.9 3.2l34.2-3c.9 0 1.7-.4 2.2-1-.4.1-.8.2-1.2.2z" class="st1"/><path d="M30.5 80.6c-1.9-.1-3.8-.3-5.6-1.1-1.8-.8-3.4-2.1-4.4-3.8-1.5-2.5-1.4-5.4-1-7.5.2-.9.3-1.8.5-2.6.3-1.4.6-2.8.7-4.2 0-.5.5-1 1.1-.9.5 0 1 .5.9 1.1-.1 1.5-.5 3-.8 4.4-.2.8-.4 1.7-.5 2.5-.3 1.7-.4 4.2.8 6.1.8 1.3 2 2.4 3.4 3 1.5.7 3.2.8 4.9.9 1.9 0 3.2-.3 4.2-.9 1.4-.8 2.4-2.3 3.2-4.5 1.1-3.6.6-7.7-1.2-11.1-.3-.5-.1-1.1.4-1.4.5-.3 1.1-.1 1.4.4 2.1 3.8 2.6 8.6 1.4 12.7-.9 2.6-2.3 4.5-4 5.6-1.8 1.1-3.8 1.3-5.4 1.3z" class="st2"/><circle cx="22.2" cy="61" r="1.4" class="st3"/><circle cx="37.8" cy="61" r="1.4" class="st3"/><path d="M30.9 80.1c-1.9-.1-3.8-.3-5.6-1.1-1.8-.8-3.4-2.1-4.4-3.8-1.5-2.5-1.4-5.4-1-7.5.2-.9.3-1.8.5-2.6.3-1.4.6-2.8.7-4.2 0-.5.5-1 1.1-.9.5 0 1 .5.9 1.1-.1 1.5-.5 3-.8 4.4-.2.8-.4 1.7-.5 2.5-.3 1.7-.4 4.2.8 6.1.8 1.3 2 2.4 3.4 3 1.5.7 3.2.8 4.9.9 1.9 0 3.2-.3 4.2-.9 1.4-.8 2.4-2.3 3.2-4.5 1.1-3.6.6-7.7-1.2-11.1-.3-.5-.1-1.1.4-1.4.5-.3 1.1-.1 1.4.4 2.1 3.8 2.6 8.6 1.4 12.7-.9 2.6-2.3 4.5-4 5.6-1.8 1.2-3.8 1.3-5.4 1.3z" class="st4"/></g><path d="m102.7 44.9-35 .5c-1.8 0-3.2 1.3-3.4 3.1L60 89.1c-.2 2.1 1.4 3.8 3.4 3.8l43.9 1.9c2 0 3.6-1.8 3.4-3.8l-4.6-43c-.1-1.7-1.6-3.1-3.4-3.1z" style="fill:#fbc687"/><path d="m108.6 94.3-43.9-1.9c-2 0-3.6-1.7-3.4-3.8L65.6 48c.1-1.1.7-2 1.5-2.5-1.5.3-2.6 1.5-2.7 3L60 89.1c-.2 2.1 1.4 3.8 3.4 3.8l43.9 1.9c.7 0 1.3-.2 1.9-.6-.2 0-.4.1-.6.1z" class="st1"/><path d="M85.5 77.2c-2.7-.1-4.8-.5-6.6-1.3-2.3-1-4.1-2.6-5.2-4.4-1.3-2.2-1.6-5.1-1.1-8.8.1-.7.2-1.4.4-2.1.5-2.4 1-5.2.3-7.4-.2-.5.1-1.1.6-1.3s1.1.1 1.3.6c.9 2.7.3 5.9-.2 8.4-.1.7-.3 1.4-.4 2-.5 3.3-.2 5.7.9 7.6.8 1.5 2.4 2.8 4.2 3.6 1.5.6 3.4 1 5.9 1.1 1.7 0 3.7-.1 5.2-1.1 2-1.2 3.6-3.2 4.3-5.4 1.4-4.3 1.4-11.4-1-15.4-.3-.5-.1-1.1.3-1.4.5-.3 1.1-.1 1.4.3 2.7 4.5 2.7 12.2 1.2 17-.9 2.7-2.8 5.1-5.1 6.5-2 1.3-4.5 1.5-6.4 1.5z" class="st2"/><circle cx="74.7" cy="52.3" r="1.7" class="st3"/><circle cx="95.5" cy="52.3" r="1.7" class="st3"/><path d="M86 76.7c-2.7-.1-4.8-.5-6.6-1.3-2.3-1-4.1-2.6-5.2-4.4-1.3-2.2-1.6-5.1-1.1-8.8.1-.7.2-1.4.4-2.1.5-2.4 1-5.2.3-7.4-.2-.5.1-1.1.6-1.3s1.1.1 1.3.6c.9 2.7.3 5.9-.2 8.4-.1.7-.3 1.4-.4 2-.5 3.3-.2 5.7.9 7.6.8 1.5 2.4 2.8 4.2 3.6 1.5.6 3.4 1 5.9 1.1 1.7 0 3.7-.1 5.2-1.1 2-1.2 3.6-3.2 4.3-5.4 1.4-4.3 1.4-11.4-1-15.4-.3-.5-.1-1.1.3-1.4.5-.3 1.1-.1 1.4.3 2.7 4.5 2.7 12.2 1.2 17-.9 2.7-2.8 5.1-5.1 6.5-2.1 1.3-4.5 1.5-6.4 1.5z" class="st4"/></g></svg>